<svg xmlns="http://www.w3.org/2000/svg" xmlns:xlink="http://www.w3.org/1999/xlink" width="500" zoomAndPan="magnify" viewBox="0 0 375 374.999991" height="500" preserveAspectRatio="xMidYMid meet" version="1.0"><defs><g/><clipPath id="daa5cf14b9"><path d="M 37.5 125.101562 L 145.5 125.101562 L 145.5 249.601562 L 37.5 249.601562 Z M 37.5 125.101562 " clip-rule="nonzero"/></clipPath></defs><rect x="-37.5" width="450" fill="#ffffff" y="-37.499999" height="449.999989" fill-opacity="1"/><rect x="-37.5" width="450" fill="#2cb084" y="-37.499999" height="449.999989" fill-opacity="1"/><g clip-path="url(#daa5cf14b9)"><path fill="#042131" d="M 144.402344 231.371094 C 145.628906 230.148438 145.628906 228.167969 144.402344 226.949219 C 144.042969 226.589844 143.617188 226.335938 143.164062 226.1875 L 141.207031 226.1875 C 140.753906 226.335938 140.332031 226.589844 139.972656 226.949219 C 139.613281 227.308594 139.355469 227.730469 139.207031 228.183594 L 120.070312 224.46875 C 120.03125 224.191406 119.964844 223.914062 119.867188 223.636719 L 126.652344 219.726562 C 128.582031 224.179688 135.3125 222.816406 135.3125 217.941406 C 135.3125 214.304688 131.222656 212.210938 128.265625 214.214844 L 119.582031 205.546875 C 121.144531 202.59375 119.011719 198.949219 115.585938 198.949219 C 113.09375 198.949219 111.070312 200.964844 111.070312 203.453125 C 111.070312 205.648438 112.648438 207.476562 114.734375 207.875 L 114.734375 220.695312 C 114.128906 220.8125 113.570312 221.046875 113.074219 221.375 L 103.71875 212.039062 C 104.503906 210.957031 104.671875 209.464844 104.292969 208.183594 L 103.25 206.417969 L 103.175781 206.339844 C 103.171875 206.339844 102 205.210938 100.785156 205.09375 C 99.1875 204.941406 97.949219 205.167969 96.726562 206.417969 L 95.683594 208.183594 C 95.304688 209.464844 95.472656 210.957031 96.257812 212.039062 L 86.890625 221.386719 L 85.152344 220.683594 L 85.152344 207.492188 C 86.433594 207.316406 87.667969 206.3125 88.289062 205.167969 L 88.804688 203.183594 L 88.804688 203.078125 L 88.792969 202.753906 L 88.621094 201.796875 L 88.386719 201.183594 L 88.289062 200.988281 L 88.125 200.699219 L 87.722656 200.152344 L 87.054688 199.519531 L 86.871094 199.386719 L 85.160156 198.664062 L 84.515625 198.585938 L 84.191406 198.582031 L 82.203125 199.097656 C 81.046875 199.726562 80.058594 200.933594 79.875 202.226562 L 66.628906 202.226562 L 65.933594 200.542969 L 75.300781 191.195312 L 75.542969 191.347656 L 76.054688 191.609375 L 76.488281 191.769531 L 76.5625 191.789062 L 76.890625 191.871094 L 76.972656 191.886719 L 77.308594 191.941406 L 77.945312 191.96875 L 78.402344 191.933594 L 78.84375 191.855469 L 79.167969 191.765625 L 79.582031 191.617188 L 80.4375 191.140625 L 80.9375 190.726562 L 81.164062 190.496094 L 81.5625 189.988281 L 81.839844 189.519531 L 82.261719 188.269531 L 82.28125 188.160156 L 82.3125 187.933594 L 82.332031 187.589844 L 82.332031 187.359375 L 82.308594 187.015625 L 82.296875 186.902344 L 82.261719 186.679688 L 81.839844 185.429688 L 81.5625 184.960938 L 81.164062 184.453125 L 80.9375 184.21875 L 80.4375 183.808594 L 79.582031 183.332031 L 79.167969 183.179688 L 78.84375 183.09375 L 78.402344 183.015625 L 77.945312 182.980469 L 77.308594 183.007812 L 76.972656 183.058594 L 76.890625 183.078125 L 76.5625 183.160156 L 76.488281 183.179688 L 76.054688 183.339844 L 75.542969 183.597656 L 75.300781 183.75 L 65.933594 174.40625 L 66.628906 172.722656 L 79.875 172.722656 C 80.058594 174.011719 81.046875 175.222656 82.203125 175.851562 L 84.191406 176.363281 L 84.515625 176.359375 L 85.160156 176.285156 L 86.871094 175.5625 L 87.054688 175.429688 L 87.722656 174.796875 L 88.125 174.25 L 88.289062 173.960938 L 88.386719 173.765625 L 88.621094 173.152344 L 88.792969 172.195312 L 88.804688 171.871094 L 88.804688 171.761719 L 88.289062 169.78125 C 87.667969 168.632812 86.433594 167.632812 85.152344 167.457031 L 85.152344 154.265625 L 86.890625 153.5625 L 96.257812 162.910156 C 95.472656 163.992188 95.304688 165.484375 95.683594 166.765625 L 96.726562 168.53125 C 97.949219 169.78125 99.1875 170.007812 100.785156 169.855469 C 102 169.738281 103.171875 168.609375 103.175781 168.605469 L 103.25 168.53125 L 104.292969 166.765625 C 104.671875 165.484375 104.503906 163.992188 103.71875 162.910156 L 113.074219 153.574219 C 113.570312 153.902344 114.128906 154.136719 114.734375 154.253906 L 114.734375 167.074219 C 112.648438 167.472656 111.070312 169.300781 111.070312 171.496094 C 111.070312 173.984375 113.09375 176 115.585938 176 C 119.011719 176 121.144531 172.355469 119.582031 169.398438 L 128.265625 160.734375 C 131.222656 162.738281 135.3125 160.644531 135.3125 157.007812 C 135.3125 152.132812 128.582031 150.769531 126.652344 155.222656 L 119.867188 151.3125 C 120.007812 150.910156 120.085938 150.503906 120.109375 150.105469 L 139 146.4375 C 139.148438 146.886719 139.402344 147.3125 139.761719 147.671875 C 140.125 148.03125 140.550781 148.285156 141.003906 148.433594 L 142.714844 148.433594 L 142.714844 148.5 C 143.257812 148.371094 143.773438 148.09375 144.195312 147.671875 C 145.417969 146.449219 145.417969 144.46875 144.195312 143.25 C 142.972656 142.027344 140.988281 142.027344 139.761719 143.25 C 139.097656 143.914062 138.796875 144.800781 138.851562 145.671875 L 120.082031 149.3125 C 119.816406 147.148438 117.960938 145.324219 115.585938 145.324219 C 114.582031 145.324219 113.652344 145.652344 112.902344 146.207031 L 102.34375 130.582031 C 103 130.011719 103.417969 129.167969 103.417969 128.230469 C 103.417969 126.503906 102.011719 125.101562 100.28125 125.101562 C 98.550781 125.101562 97.148438 126.503906 97.148438 128.230469 C 97.148438 129.167969 97.5625 130.007812 98.21875 130.582031 L 87.433594 146.546875 C 86.308594 145.511719 84.6875 145.066406 83.128906 145.484375 C 81.246094 145.988281 80.023438 147.566406 79.820312 149.3125 L 61.503906 145.757812 C 61.5625 144.886719 61.257812 144 60.59375 143.335938 C 59.371094 142.113281 57.386719 142.113281 56.160156 143.335938 C 54.9375 144.554688 54.9375 146.535156 56.160156 147.757812 C 56.828125 148.421875 57.714844 148.722656 58.585938 148.664062 L 62.226562 167.335938 C 59.457031 167.292969 57.222656 170.023438 57.796875 172.84375 C 57.960938 173.558594 58.273438 174.207031 58.71875 174.75 L 43.171875 185.210938 C 42.597656 184.554688 41.753906 184.140625 40.8125 184.140625 C 39.082031 184.140625 37.679688 185.539062 37.679688 187.265625 C 37.679688 188.992188 39.082031 190.394531 40.8125 190.394531 C 41.753906 190.394531 42.597656 189.980469 43.171875 189.324219 L 58.949219 199.9375 C 58.378906 200.53125 57.988281 201.273438 57.796875 202.105469 L 57.75 203.769531 C 58.125 206.027344 59.96875 207.464844 61.964844 207.574219 L 58.378906 225.953125 C 57.511719 225.894531 56.621094 226.199219 55.953125 226.863281 C 54.730469 228.082031 54.730469 230.0625 55.953125 231.285156 C 57.179688 232.503906 59.164062 232.503906 60.386719 231.285156 C 61.050781 230.621094 61.355469 229.734375 61.296875 228.863281 L 79.789062 225.273438 C 79.859375 227.160156 81.117188 228.925781 83.128906 229.464844 C 84.730469 229.894531 86.40625 229.410156 87.53125 228.308594 L 98.21875 244.121094 C 97.5625 244.695312 97.148438 245.539062 97.148438 246.476562 C 97.148438 248.203125 98.550781 249.601562 100.28125 249.601562 C 102.011719 249.601562 103.417969 248.203125 103.417969 246.476562 C 103.417969 245.535156 103 244.695312 102.34375 244.121094 L 112.792969 228.660156 C 113.5625 229.261719 114.53125 229.625 115.585938 229.625 C 118.09375 229.625 120.019531 227.589844 120.113281 225.273438 L 139.058594 228.949219 C 139.003906 229.820312 139.304688 230.707031 139.972656 231.371094 C 141.195312 232.589844 143.179688 232.589844 144.402344 231.371094 Z M 51.144531 204.5 C 52.523438 204.5 53.640625 205.613281 53.640625 206.984375 C 53.640625 208.359375 52.523438 209.472656 51.144531 209.472656 C 49.769531 209.472656 48.652344 208.359375 48.652344 206.984375 C 48.652344 205.613281 49.769531 204.5 51.144531 204.5 Z M 51.144531 165.222656 C 52.523438 165.222656 53.640625 166.335938 53.640625 167.710938 C 53.640625 169.082031 52.523438 170.199219 51.144531 170.199219 C 49.769531 170.199219 48.652344 169.082031 48.652344 167.710938 C 48.652344 166.335938 49.769531 165.222656 51.144531 165.222656 Z M 79.074219 137.027344 C 80.449219 137.027344 81.566406 138.140625 81.566406 139.515625 C 81.566406 140.890625 80.449219 142.003906 79.074219 142.003906 C 77.695312 142.003906 76.582031 140.890625 76.582031 139.515625 C 76.582031 138.140625 77.695312 137.027344 79.074219 137.027344 Z M 119.113281 137.027344 C 120.488281 137.027344 121.605469 138.140625 121.605469 139.515625 C 121.605469 140.890625 120.488281 142.003906 119.113281 142.003906 C 117.734375 142.003906 116.617188 140.890625 116.617188 139.515625 C 116.617188 138.140625 117.734375 137.027344 119.113281 137.027344 Z M 80.621094 233.398438 C 81.996094 233.398438 83.113281 234.511719 83.113281 235.886719 C 83.113281 237.257812 81.996094 238.371094 80.621094 238.371094 C 79.246094 238.371094 78.128906 237.257812 78.128906 235.886719 C 78.128906 234.511719 79.246094 233.398438 80.621094 233.398438 Z M 120.078125 233.398438 C 121.453125 233.398438 122.570312 234.511719 122.570312 235.886719 C 122.570312 237.257812 121.453125 238.371094 120.078125 238.371094 C 118.699219 238.371094 117.582031 237.257812 117.582031 235.886719 C 117.582031 234.511719 118.699219 233.398438 120.078125 233.398438 Z M 112.3125 146.726562 C 111.816406 147.246094 111.445312 147.882812 111.242188 148.589844 L 104.488281 144.699219 C 104.621094 142.117188 102.566406 139.964844 99.988281 139.964844 C 97.410156 139.964844 95.355469 142.117188 95.488281 144.699219 L 88.703125 148.609375 C 88.546875 148.0625 88.296875 147.570312 87.972656 147.140625 L 98.867188 131.019531 C 99.292969 131.234375 99.773438 131.355469 100.28125 131.355469 C 100.789062 131.355469 101.269531 131.234375 101.695312 131.019531 Z M 79.796875 150.101562 C 79.835938 150.75 80.015625 151.402344 80.359375 152.015625 L 72.789062 154.039062 C 71.058594 152.121094 68.074219 152.042969 66.25 153.863281 C 64.421875 155.6875 64.503906 158.664062 66.425781 160.386719 L 64.398438 167.941406 C 63.945312 167.6875 63.488281 167.519531 63.042969 167.425781 L 59.355469 148.519531 C 59.808594 148.371094 60.234375 148.117188 60.59375 147.757812 C 60.953125 147.398438 61.207031 146.976562 61.355469 146.523438 Z M 59.28125 175.316406 C 59.484375 175.488281 59.707031 175.644531 59.945312 175.78125 L 59.992188 175.808594 L 60.132812 175.886719 L 60.96875 176.214844 L 57.050781 182.984375 L 56.808594 182.980469 L 56.691406 182.980469 L 56.574219 182.984375 L 56.347656 183.003906 L 56.234375 183.015625 L 56.121094 183.03125 L 56.007812 183.050781 L 55.898438 183.070312 L 55.789062 183.09375 L 55.574219 183.148438 L 55.46875 183.183594 L 55.363281 183.214844 L 55.257812 183.253906 L 55.15625 183.292969 C 55.019531 183.34375 54.886719 183.40625 54.757812 183.472656 L 54.660156 183.523438 C 54.5 183.609375 54.347656 183.703125 54.199219 183.808594 L 52.84375 185.332031 L 52.792969 185.429688 L 52.613281 185.828125 L 52.539062 186.03125 L 52.371094 186.679688 L 52.335938 186.902344 L 52.308594 187.242188 L 52.308594 187.707031 L 52.335938 188.046875 L 52.371094 188.269531 L 52.539062 188.917969 L 52.613281 189.121094 L 52.792969 189.519531 L 52.84375 189.617188 L 54.199219 191.140625 C 54.347656 191.246094 54.5 191.339844 54.660156 191.425781 L 54.757812 191.476562 C 54.886719 191.542969 55.019531 191.605469 55.15625 191.65625 L 55.257812 191.695312 L 55.363281 191.734375 L 55.46875 191.769531 L 55.574219 191.800781 L 55.789062 191.855469 L 55.898438 191.878906 L 56.007812 191.898438 L 56.121094 191.917969 L 56.234375 191.933594 L 56.347656 191.945312 L 56.574219 191.964844 L 56.691406 191.96875 L 56.808594 191.96875 L 57.050781 191.964844 L 60.96875 198.734375 L 60.132812 199.066406 L 59.945312 199.167969 C 59.8125 199.242188 59.6875 199.324219 59.566406 199.410156 L 43.609375 188.679688 C 43.824219 188.253906 43.945312 187.773438 43.945312 187.265625 C 43.945312 186.761719 43.824219 186.28125 43.609375 185.855469 Z M 62.769531 207.546875 C 63.320312 207.476562 63.875 207.300781 64.398438 207.007812 L 66.425781 214.5625 C 64.503906 216.285156 64.421875 219.261719 66.25 221.085938 C 68.074219 222.90625 71.058594 222.828125 72.789062 220.910156 L 80.359375 222.933594 C 80.082031 223.425781 79.910156 223.949219 79.835938 224.472656 L 61.148438 228.097656 C 61 227.648438 60.746094 227.222656 60.386719 226.863281 C 60.027344 226.503906 59.601562 226.25 59.148438 226.101562 Z M 88.058594 227.691406 C 88.339844 227.292969 88.558594 226.835938 88.703125 226.339844 L 95.488281 230.25 C 95.355469 232.832031 97.410156 234.988281 99.988281 234.988281 C 102.566406 234.988281 104.621094 232.832031 104.488281 230.25 L 111.242188 226.359375 C 111.433594 227.019531 111.769531 227.617188 112.214844 228.117188 L 101.695312 243.683594 C 101.269531 243.46875 100.789062 243.347656 100.28125 243.347656 C 99.773438 243.347656 99.292969 243.472656 98.867188 243.6875 Z M 88.097656 222.585938 L 97.460938 213.242188 C 98.882812 214.265625 101.09375 214.265625 102.515625 213.242188 L 111.863281 222.570312 C 111.480469 223.125 111.21875 223.769531 111.117188 224.46875 L 104.046875 228.539062 C 103.320312 227.035156 101.777344 225.996094 99.988281 225.996094 C 98.203125 225.996094 96.65625 227.035156 95.929688 228.539062 L 88.824219 224.445312 C 88.722656 223.785156 88.476562 223.148438 88.097656 222.585938 Z M 97.460938 161.707031 L 88.097656 152.363281 C 88.476562 151.800781 88.722656 151.164062 88.824219 150.503906 L 95.929688 146.410156 C 96.65625 147.914062 98.203125 148.953125 99.988281 148.953125 C 101.777344 148.953125 103.320312 147.914062 104.046875 146.410156 L 111.117188 150.480469 C 111.21875 151.179688 111.480469 151.824219 111.863281 152.378906 L 102.515625 161.707031 C 101.09375 160.683594 98.882812 160.683594 97.460938 161.707031 Z M 118.507812 168.066406 C 117.925781 167.570312 117.21875 167.222656 116.4375 167.074219 L 116.4375 154.257812 C 117.417969 154.074219 118.332031 153.566406 119.011719 152.785156 L 126.285156 156.972656 C 126.273438 157.914062 126.570312 158.808594 127.0625 159.535156 Z M 74.097656 184.953125 L 73.4375 186.457031 L 73.328125 187.242188 L 73.328125 187.707031 L 73.4375 188.492188 L 73.503906 188.734375 L 74.097656 189.996094 L 64.730469 199.339844 C 64.167969 198.960938 63.53125 198.714844 62.867188 198.613281 L 58.765625 191.523438 L 58.835938 191.488281 L 59.039062 191.378906 L 59.242188 191.257812 L 59.371094 191.171875 L 59.558594 191.035156 L 59.621094 190.984375 L 59.679688 190.9375 L 59.738281 190.886719 L 59.96875 190.675781 L 60.023438 190.621094 L 60.425781 190.152344 L 60.5625 189.960938 L 60.835938 189.488281 L 60.996094 189.132812 L 61.027344 189.058594 L 61.078125 188.910156 L 61.101562 188.832031 C 61.382812 187.917969 61.382812 187.03125 61.101562 186.117188 L 61.078125 186.039062 L 60.996094 185.816406 L 60.835938 185.460938 L 60.5625 184.988281 L 60.023438 184.328125 L 59.96875 184.273438 L 59.738281 184.0625 L 59.679688 184.011719 L 59.621094 183.964844 L 59.558594 183.914062 L 59.371094 183.777344 L 59.242188 183.691406 L 59.039062 183.570312 L 58.835938 183.460938 L 58.765625 183.425781 L 62.867188 176.335938 C 63.53125 176.234375 64.167969 175.988281 64.730469 175.609375 Z M 79.875 171.023438 L 66.628906 171.023438 C 66.5 170.359375 66.222656 169.734375 65.824219 169.195312 L 67.949219 161.285156 C 69.53125 161.835938 71.359375 161.480469 72.621094 160.222656 C 73.886719 158.960938 74.242188 157.136719 73.691406 155.558594 L 81.613281 153.441406 C 82.15625 153.839844 82.78125 154.113281 83.445312 154.242188 L 83.449219 167.457031 L 81.707031 168.195312 C 80.808594 168.835938 80.023438 169.949219 79.875 171.023438 Z M 116.4375 207.875 C 117.21875 207.726562 117.925781 207.378906 118.507812 206.882812 L 127.0625 215.417969 C 126.570312 216.140625 126.273438 217.035156 126.285156 217.976562 L 119.011719 222.164062 C 118.332031 221.382812 117.417969 220.875 116.4375 220.691406 Z M 66.628906 203.925781 L 79.875 203.925781 C 80.023438 205 80.808594 206.113281 81.707031 206.753906 L 83.449219 207.492188 L 83.449219 220.707031 C 82.78125 220.835938 82.15625 221.109375 81.613281 221.507812 L 73.691406 219.390625 C 74.242188 217.8125 73.886719 215.988281 72.621094 214.726562 C 71.359375 213.46875 69.53125 213.113281 67.949219 213.664062 L 65.824219 205.753906 C 66.222656 205.214844 66.5 204.59375 66.628906 203.925781 Z M 66.628906 203.925781 " fill-opacity="1" fill-rule="evenodd"/></g><g fill="#042131" fill-opacity="1"><g transform="translate(145.496728, 206.319946)"><g><path d="M 21.9375 0 L 13.0625 0 L -0.046875 -33.75 L 9.109375 -33.75 L 17.734375 -8.921875 L 26.359375 -33.75 L 35.1875 -33.75 Z M 21.9375 0 "/></g></g></g><g fill="#042131" fill-opacity="1"><g transform="translate(188.877935, 206.319946)"><g><path d="M 29.15625 -26.84375 L 18.984375 -26.84375 L 18.984375 0 L 10.40625 0 L 10.40625 -26.84375 L 0.34375 -26.84375 L 0.34375 -33.796875 L 29.15625 -33.796875 Z M 29.15625 -26.84375 "/></g></g></g><g fill="#042131" fill-opacity="1"><g transform="translate(226.571624, 206.319946)"><g><path d="M 29.796875 -27 L 11.953125 -27 L 11.953125 -20.296875 L 28.046875 -20.296875 L 28.046875 -13.546875 L 11.953125 -13.546875 L 11.953125 -6.75 L 30.3125 -6.75 L 30.3125 0 L 3.375 0 L 3.375 -33.75 L 29.796875 -33.75 Z M 29.796875 -27 "/></g></g></g><g fill="#042131" fill-opacity="1"><g transform="translate(267.301866, 206.319946)"><g><path d="M 19.1875 -34.03125 C 21.6875 -34.03125 24.148438 -33.515625 26.578125 -32.484375 C 29.003906 -31.460938 31.070312 -30.082031 32.78125 -28.34375 L 27.8125 -22.46875 C 26.71875 -23.8125 25.40625 -24.875 23.875 -25.65625 C 22.351562 -26.445312 20.835938 -26.84375 19.328125 -26.84375 C 16.660156 -26.84375 14.425781 -25.898438 12.625 -24.015625 C 10.832031 -22.140625 9.9375 -19.820312 9.9375 -17.0625 C 9.9375 -14.238281 10.832031 -11.878906 12.625 -9.984375 C 14.425781 -8.085938 16.660156 -7.140625 19.328125 -7.140625 C 20.742188 -7.140625 22.210938 -7.488281 23.734375 -8.1875 C 25.265625 -8.894531 26.625 -9.863281 27.8125 -11.09375 L 32.828125 -5.78125 C 30.992188 -3.914062 28.832031 -2.421875 26.34375 -1.296875 C 23.851562 -0.171875 21.367188 0.390625 18.890625 0.390625 C 13.816406 0.390625 9.59375 -1.265625 6.21875 -4.578125 C 2.84375 -7.890625 1.15625 -12.019531 1.15625 -16.96875 C 1.15625 -21.820312 2.875 -25.878906 6.3125 -29.140625 C 9.75 -32.398438 14.039062 -34.03125 19.1875 -34.03125 Z M 19.1875 -34.03125 "/></g></g></g><g fill="#042131" fill-opacity="1"><g transform="translate(308.899695, 206.319946)"><g><path d="M 34.515625 0 L 25.9375 0 L 25.9375 -13.109375 L 11.953125 -13.109375 L 11.953125 0 L 3.375 0 L 3.375 -33.75 L 11.953125 -33.75 L 11.953125 -19.859375 L 25.9375 -19.859375 L 25.9375 -33.75 L 34.515625 -33.75 Z M 34.515625 0 "/></g></g></g><g fill="#ffffff" fill-opacity="1"><g transform="translate(192.667169, 230.410648)"><g><path d="M 11.5625 -7.703125 L 14.90625 -7.703125 L 14.90625 -1.796875 C 14.082031 -1.222656 13.085938 -0.75 11.921875 -0.375 C 10.765625 -0.0078125 9.660156 0.171875 8.609375 0.171875 C 6.296875 0.171875 4.367188 -0.566406 2.828125 -2.046875 C 1.285156 -3.523438 0.515625 -5.363281 0.515625 -7.5625 C 0.515625 -9.757812 1.304688 -11.59375 2.890625 -13.0625 C 4.484375 -14.53125 6.472656 -15.265625 8.859375 -15.265625 C 9.984375 -15.265625 11.101562 -15.0625 12.21875 -14.65625 C 13.332031 -14.257812 14.273438 -13.710938 15.046875 -13.015625 L 12.890625 -10.40625 C 12.335938 -10.90625 11.703125 -11.300781 10.984375 -11.59375 C 10.265625 -11.894531 9.550781 -12.046875 8.84375 -12.046875 C 7.601562 -12.046875 6.5625 -11.613281 5.71875 -10.75 C 4.875 -9.894531 4.453125 -8.832031 4.453125 -7.5625 C 4.453125 -6.28125 4.875 -5.207031 5.71875 -4.34375 C 6.570312 -3.476562 7.628906 -3.046875 8.890625 -3.046875 C 9.691406 -3.046875 10.582031 -3.289062 11.5625 -3.78125 Z M 11.5625 -7.703125 "/></g></g></g><g fill="#ffffff" fill-opacity="1"><g transform="translate(215.415692, 230.410648)"><g><path d="M 10.640625 0 L 8.390625 -4.265625 L 5.359375 -4.265625 L 5.359375 0 L 1.515625 0 L 1.515625 -15.140625 L 8.28125 -15.140625 C 10.28125 -15.140625 11.828125 -14.679688 12.921875 -13.765625 C 14.023438 -12.847656 14.578125 -11.546875 14.578125 -9.859375 C 14.578125 -7.523438 13.660156 -5.90625 11.828125 -5 L 15 0 Z M 5.359375 -7.28125 L 8.28125 -7.28125 C 9.113281 -7.28125 9.757812 -7.488281 10.21875 -7.90625 C 10.6875 -8.332031 10.921875 -8.941406 10.921875 -9.734375 C 10.921875 -10.515625 10.6875 -11.101562 10.21875 -11.5 C 9.757812 -11.90625 9.113281 -12.109375 8.28125 -12.109375 L 5.359375 -12.109375 Z M 5.359375 -7.28125 "/></g></g></g><g fill="#ffffff" fill-opacity="1"><g transform="translate(237.753418, 230.410648)"><g><path d="M 8.6875 -15.265625 C 11.039062 -15.265625 12.992188 -14.53125 14.546875 -13.0625 C 16.109375 -11.601562 16.890625 -9.78125 16.890625 -7.59375 C 16.890625 -5.382812 16.109375 -3.535156 14.546875 -2.046875 C 12.984375 -0.566406 11.03125 0.171875 8.6875 0.171875 C 6.351562 0.171875 4.40625 -0.566406 2.84375 -2.046875 C 1.289062 -3.523438 0.515625 -5.375 0.515625 -7.59375 C 0.515625 -9.800781 1.289062 -11.628906 2.84375 -13.078125 C 4.40625 -14.535156 6.351562 -15.265625 8.6875 -15.265625 Z M 8.734375 -12.046875 C 7.554688 -12.046875 6.546875 -11.613281 5.703125 -10.75 C 4.867188 -9.894531 4.453125 -8.832031 4.453125 -7.5625 C 4.453125 -6.300781 4.875 -5.234375 5.71875 -4.359375 C 6.5625 -3.484375 7.566406 -3.046875 8.734375 -3.046875 C 9.898438 -3.046875 10.890625 -3.484375 11.703125 -4.359375 C 12.523438 -5.234375 12.9375 -6.300781 12.9375 -7.5625 C 12.9375 -8.832031 12.523438 -9.894531 11.703125 -10.75 C 10.890625 -11.613281 9.898438 -12.046875 8.734375 -12.046875 Z M 8.734375 -12.046875 "/></g></g></g><g fill="#ffffff" fill-opacity="1"><g transform="translate(261.842443, 230.410648)"><g><path d="M 15.140625 -15.140625 L 15.140625 -6.359375 C 15.140625 -4.359375 14.519531 -2.769531 13.28125 -1.59375 C 12.039062 -0.414062 10.359375 0.171875 8.234375 0.171875 C 6.097656 0.171875 4.398438 -0.414062 3.140625 -1.59375 C 1.878906 -2.769531 1.25 -4.359375 1.25 -6.359375 L 1.25 -15.140625 L 5.109375 -15.140625 L 5.109375 -6.359375 C 5.109375 -5.347656 5.398438 -4.539062 5.984375 -3.9375 C 6.566406 -3.34375 7.328125 -3.046875 8.265625 -3.046875 C 9.179688 -3.046875 9.914062 -3.34375 10.46875 -3.9375 C 11.03125 -4.53125 11.3125 -5.335938 11.3125 -6.359375 L 11.3125 -15.140625 Z M 15.140625 -15.140625 "/></g></g></g><g fill="#ffffff" fill-opacity="1"><g transform="translate(284.915281, 230.410648)"><g><path d="M 1.515625 -15.140625 L 8.109375 -15.140625 C 10.035156 -15.140625 11.53125 -14.679688 12.59375 -13.765625 C 13.664062 -12.847656 14.203125 -11.546875 14.203125 -9.859375 C 14.203125 -8.085938 13.664062 -6.710938 12.59375 -5.734375 C 11.53125 -4.753906 10.035156 -4.265625 8.109375 -4.265625 L 5.359375 -4.265625 L 5.359375 0 L 1.515625 0 Z M 5.359375 -12.109375 L 5.359375 -7.28125 L 7.921875 -7.28125 C 8.765625 -7.28125 9.414062 -7.488281 9.875 -7.90625 C 10.34375 -8.332031 10.578125 -8.941406 10.578125 -9.734375 C 10.578125 -10.515625 10.34375 -11.101562 9.875 -11.5 C 9.414062 -11.90625 8.765625 -12.109375 7.921875 -12.109375 Z M 5.359375 -12.109375 "/></g></g></g></svg>