<svg xmlns="http://www.w3.org/2000/svg" xmlns:xlink="http://www.w3.org/1999/xlink" width="500" zoomAndPan="magnify" viewBox="0 0 375 374.999991" height="500" preserveAspectRatio="xMidYMid meet" version="1.0"><defs><clipPath id="de01e3c8c9"><path d="M 7.054688 3.375 L 325.804688 3.375 L 325.804688 371.625 L 7.054688 371.625 Z M 7.054688 3.375 " clip-rule="nonzero"/></clipPath></defs><rect x="-37.5" width="450" fill="#ffffff" y="-37.499999" height="449.999989" fill-opacity="1"/><rect x="-37.5" width="450" fill="#042131" y="-37.499999" height="449.999989" fill-opacity="1"/><g clip-path="url(#de01e3c8c9)"><path fill="#ffffff" d="M 322.5625 317.691406 C 326.175781 314.082031 326.175781 308.226562 322.5625 304.613281 C 321.5 303.550781 320.242188 302.804688 318.90625 302.367188 L 313.136719 302.367188 C 311.796875 302.804688 310.542969 303.554688 309.480469 304.613281 C 308.421875 305.675781 307.671875 306.933594 307.230469 308.269531 L 250.75 297.28125 C 250.632812 296.460938 250.433594 295.636719 250.148438 294.816406 L 270.175781 283.253906 C 275.867188 296.421875 295.734375 292.394531 295.734375 277.976562 C 295.734375 267.21875 283.664062 261.019531 274.9375 266.949219 L 249.304688 241.316406 C 253.917969 232.578125 247.625 221.796875 237.511719 221.796875 C 230.152344 221.796875 224.1875 227.761719 224.1875 235.117188 C 224.1875 241.613281 228.839844 247.023438 234.996094 248.199219 L 234.996094 286.121094 C 233.214844 286.460938 231.558594 287.15625 230.105469 288.128906 L 202.492188 260.515625 C 204.804688 257.3125 205.304688 252.898438 204.179688 249.109375 L 201.105469 243.890625 L 200.882812 243.664062 C 200.878906 243.660156 197.417969 240.316406 193.835938 239.976562 C 189.113281 239.523438 185.464844 240.191406 181.855469 243.890625 L 178.78125 249.109375 C 177.65625 252.898438 178.15625 257.3125 180.46875 260.515625 L 152.820312 288.164062 L 147.691406 286.085938 L 147.691406 247.0625 C 151.46875 246.546875 155.117188 243.582031 156.953125 240.191406 L 158.472656 234.328125 L 158.472656 234.007812 L 158.441406 233.050781 L 157.925781 230.222656 L 157.242188 228.410156 L 156.953125 227.824219 L 156.460938 226.96875 L 155.277344 225.355469 L 153.308594 223.484375 L 152.769531 223.089844 L 147.71875 220.957031 L 145.816406 220.726562 L 144.859375 220.714844 L 138.992188 222.234375 C 135.578125 224.089844 132.664062 227.671875 132.121094 231.492188 L 93.023438 231.492188 L 90.972656 226.511719 L 118.621094 198.867188 L 119.335938 199.320312 L 120.847656 200.085938 L 122.125 200.554688 L 122.347656 200.625 L 123.308594 200.863281 L 123.550781 200.914062 L 124.546875 201.066406 L 126.421875 201.148438 L 127.769531 201.046875 L 129.082031 200.8125 L 130.03125 200.554688 L 131.253906 200.105469 L 133.773438 198.699219 L 135.253906 197.480469 L 135.921875 196.796875 L 137.101562 195.292969 L 137.917969 193.910156 L 139.167969 190.210938 L 139.222656 189.878906 L 139.269531 189.550781 L 139.308594 189.21875 L 139.371094 188.199219 L 139.371094 187.515625 L 139.304688 186.496094 L 139.269531 186.164062 L 139.167969 185.503906 L 137.917969 181.804688 L 137.105469 180.421875 L 135.921875 178.917969 L 135.253906 178.230469 L 133.773438 177.011719 L 131.253906 175.605469 L 130.03125 175.15625 L 129.082031 174.902344 L 127.769531 174.667969 L 126.421875 174.566406 L 124.546875 174.648438 L 123.550781 174.800781 L 123.308594 174.851562 L 122.347656 175.089844 L 122.125 175.160156 L 120.847656 175.628906 L 119.335938 176.394531 L 118.621094 176.84375 L 90.972656 149.203125 L 93.023438 144.21875 L 132.121094 144.222656 C 132.664062 148.042969 135.578125 151.621094 138.992188 153.480469 L 144.859375 154.996094 L 145.816406 154.984375 L 147.71875 154.757812 L 152.769531 152.625 L 153.308594 152.230469 L 155.277344 150.355469 L 156.460938 148.742188 L 156.953125 147.890625 L 157.242188 147.304688 L 157.925781 145.492188 L 158.441406 142.664062 L 158.472656 141.707031 L 158.472656 141.386719 L 156.953125 135.523438 C 155.117188 132.132812 151.46875 129.167969 147.691406 128.652344 L 147.691406 89.628906 L 152.820312 87.550781 L 180.46875 115.195312 C 178.15625 118.398438 177.65625 122.816406 178.78125 126.605469 L 181.855469 131.824219 C 185.464844 135.523438 189.113281 136.191406 193.835938 135.738281 C 197.417969 135.394531 200.878906 132.050781 200.882812 132.050781 L 201.105469 131.824219 L 204.179688 126.605469 C 205.304688 122.816406 204.804688 118.398438 202.492188 115.195312 L 230.105469 87.585938 C 231.558594 88.558594 233.214844 89.253906 234.996094 89.59375 L 234.996094 127.511719 C 228.839844 128.691406 224.1875 134.101562 224.1875 140.597656 C 224.1875 147.953125 230.152344 153.917969 237.511719 153.917969 C 247.625 153.917969 253.917969 143.132812 249.304688 134.394531 L 274.9375 108.765625 C 283.664062 114.695312 295.734375 108.496094 295.734375 97.738281 C 295.734375 83.320312 275.867188 79.292969 270.175781 92.460938 L 250.148438 80.898438 C 250.5625 79.707031 250.792969 78.507812 250.863281 77.324219 L 306.621094 66.472656 C 307.058594 67.808594 307.808594 69.066406 308.871094 70.125 C 309.929688 71.1875 311.1875 71.9375 312.527344 72.375 L 317.582031 72.375 L 317.582031 72.578125 C 319.183594 72.191406 320.699219 71.375 321.949219 70.125 C 325.5625 66.515625 325.5625 60.660156 321.949219 57.046875 C 318.339844 53.4375 312.480469 53.4375 308.871094 57.050781 C 306.90625 59.011719 306.011719 61.640625 306.183594 64.207031 L 250.789062 74.984375 C 250 68.582031 244.523438 63.1875 237.511719 63.1875 C 234.546875 63.1875 231.808594 64.15625 229.59375 65.792969 L 198.433594 19.582031 C 200.371094 17.886719 201.597656 15.398438 201.597656 12.621094 C 201.597656 7.515625 197.457031 3.371094 192.347656 3.371094 C 187.242188 3.371094 183.097656 7.515625 183.097656 12.621094 C 183.097656 15.398438 184.324219 17.886719 186.257812 19.582031 L 154.421875 66.796875 C 151.105469 63.734375 146.316406 62.425781 141.71875 63.65625 C 136.167969 65.144531 132.558594 69.816406 131.953125 74.976562 L 77.902344 64.464844 C 78.070312 61.894531 77.179688 59.265625 75.214844 57.300781 C 71.601562 53.691406 65.746094 53.691406 62.132812 57.300781 C 58.523438 60.914062 58.523438 66.769531 62.132812 70.378906 C 64.097656 72.34375 66.722656 73.238281 69.289062 73.066406 L 80.039062 128.289062 C 71.855469 128.167969 65.257812 136.238281 66.960938 144.578125 C 67.445312 146.695312 68.359375 148.613281 69.683594 150.222656 L 23.796875 181.160156 C 22.101562 179.222656 19.609375 177.996094 16.832031 177.996094 C 11.726562 177.996094 7.582031 182.136719 7.582031 187.242188 C 7.582031 192.351562 11.726562 196.492188 16.832031 196.492188 C 19.609375 196.492188 22.097656 195.265625 23.796875 193.332031 L 70.367188 224.726562 C 68.671875 226.480469 67.523438 228.671875 66.957031 231.132812 L 66.820312 236.058594 C 67.933594 242.730469 73.367188 246.984375 79.261719 247.308594 L 68.683594 301.675781 C 66.113281 301.503906 63.484375 302.394531 61.519531 304.359375 C 57.910156 307.972656 57.910156 313.828125 61.519531 317.4375 C 65.132812 321.050781 70.988281 321.050781 74.601562 317.4375 C 76.566406 315.476562 77.460938 312.851562 77.289062 310.28125 L 131.871094 299.664062 C 132.074219 305.238281 135.785156 310.464844 141.71875 312.054688 C 146.453125 313.324219 151.394531 311.898438 154.71875 308.636719 L 186.257812 355.414062 C 184.324219 357.109375 183.097656 359.597656 183.097656 362.375 C 183.097656 367.480469 187.242188 371.621094 192.347656 371.621094 C 197.457031 371.621094 201.597656 367.480469 201.597656 362.375 C 201.597656 359.597656 200.371094 357.105469 198.433594 355.410156 L 229.273438 309.675781 C 231.542969 311.460938 234.402344 312.527344 237.511719 312.527344 C 244.914062 312.527344 250.601562 306.515625 250.875 299.65625 L 306.792969 310.535156 C 306.625 313.105469 307.519531 315.730469 309.480469 317.691406 C 313.09375 321.304688 318.949219 321.304688 322.5625 317.691406 Z M 47.332031 238.214844 C 51.394531 238.214844 54.691406 241.507812 54.691406 245.570312 C 54.691406 249.632812 51.394531 252.925781 47.332031 252.925781 C 43.269531 252.925781 39.976562 249.632812 39.976562 245.570312 C 39.976562 241.507812 43.269531 238.214844 47.332031 238.214844 Z M 47.332031 122.042969 C 51.394531 122.042969 54.691406 125.335938 54.691406 129.398438 C 54.691406 133.460938 51.394531 136.753906 47.332031 136.753906 C 43.269531 136.753906 39.976562 133.460938 39.976562 129.398438 C 39.976562 125.335938 43.269531 122.042969 47.332031 122.042969 Z M 129.753906 38.648438 C 133.816406 38.648438 137.113281 41.941406 137.113281 46.003906 C 137.113281 50.066406 133.816406 53.359375 129.753906 53.359375 C 125.691406 53.359375 122.398438 50.066406 122.398438 46.003906 C 122.398438 41.941406 125.691406 38.648438 129.753906 38.648438 Z M 247.917969 38.648438 C 251.980469 38.648438 255.277344 41.941406 255.277344 46.003906 C 255.277344 50.066406 251.980469 53.359375 247.917969 53.359375 C 243.855469 53.359375 240.5625 50.066406 240.5625 46.003906 C 240.5625 41.941406 243.855469 38.648438 247.917969 38.648438 Z M 134.320312 323.691406 C 138.382812 323.691406 141.679688 326.984375 141.679688 331.046875 C 141.679688 335.109375 138.382812 338.402344 134.320312 338.402344 C 130.257812 338.402344 126.964844 335.109375 126.964844 331.046875 C 126.964844 326.984375 130.257812 323.691406 134.320312 323.691406 Z M 250.765625 323.691406 C 254.828125 323.691406 258.125 326.984375 258.125 331.046875 C 258.125 335.109375 254.828125 338.402344 250.765625 338.402344 C 246.707031 338.402344 243.410156 335.109375 243.410156 331.046875 C 243.410156 326.984375 246.707031 323.691406 250.765625 323.691406 Z M 227.847656 67.335938 C 226.390625 68.871094 225.292969 70.753906 224.695312 72.847656 L 204.757812 61.335938 C 205.15625 53.695312 199.089844 47.328125 191.480469 47.328125 C 183.867188 47.328125 177.804688 53.695312 178.203125 61.339844 L 158.171875 72.902344 C 157.710938 71.285156 156.96875 69.824219 156.015625 68.558594 L 188.171875 20.875 C 189.425781 21.511719 190.847656 21.871094 192.347656 21.871094 C 193.847656 21.871094 195.265625 21.511719 196.519531 20.875 Z M 131.886719 77.316406 C 132 79.238281 132.535156 81.167969 133.546875 82.976562 L 111.203125 88.964844 C 106.101562 83.285156 97.292969 83.058594 91.90625 88.445312 C 86.511719 93.835938 86.753906 102.644531 92.425781 107.742188 L 86.441406 130.078125 C 85.101562 129.332031 83.761719 128.835938 82.441406 128.558594 L 71.558594 72.632812 C 72.894531 72.191406 74.152344 71.441406 75.214844 70.382812 C 76.273438 69.320312 77.023438 68.066406 77.460938 66.730469 Z M 71.335938 151.898438 C 71.9375 152.40625 72.59375 152.867188 73.304688 153.277344 L 73.441406 153.355469 L 73.855469 153.578125 L 76.320312 154.554688 L 64.753906 174.578125 L 64.039062 174.5625 L 63.695312 174.566406 L 63.355469 174.578125 L 62.679688 174.632812 L 62.34375 174.667969 L 62.011719 174.714844 L 61.683594 174.769531 L 61.359375 174.832031 L 61.035156 174.902344 L 60.398438 175.066406 L 60.085938 175.160156 L 59.773438 175.261719 L 59.46875 175.371094 L 59.164062 175.484375 C 58.761719 175.644531 58.367188 175.820312 57.984375 176.015625 L 57.699219 176.167969 C 57.230469 176.421875 56.777344 176.707031 56.339844 177.015625 L 52.34375 181.519531 L 52.195312 181.804688 L 51.664062 182.984375 L 51.4375 183.59375 L 50.949219 185.503906 L 50.847656 186.164062 L 50.757812 187.175781 L 50.757812 188.542969 L 50.847656 189.550781 L 50.949219 190.210938 L 51.441406 192.121094 L 51.664062 192.734375 L 52.195312 193.910156 L 52.347656 194.195312 L 56.339844 198.699219 C 56.773438 199.011719 57.230469 199.292969 57.699219 199.550781 L 57.984375 199.699219 C 58.367188 199.894531 58.761719 200.070312 59.164062 200.230469 L 59.46875 200.347656 L 59.773438 200.457031 L 60.085938 200.558594 L 60.398438 200.648438 L 61.035156 200.8125 L 61.359375 200.882812 L 61.683594 200.945312 L 62.011719 201 L 62.34375 201.046875 L 62.679688 201.085938 L 63.355469 201.136719 L 63.695312 201.148438 L 64.039062 201.152344 L 64.753906 201.136719 L 76.320312 221.164062 L 73.855469 222.140625 L 73.304688 222.441406 C 72.914062 222.664062 72.535156 222.90625 72.175781 223.164062 L 25.089844 191.421875 C 25.722656 190.164062 26.082031 188.746094 26.082031 187.246094 C 26.082031 185.746094 25.726562 184.328125 25.089844 183.074219 Z M 81.632812 247.222656 C 83.265625 247.015625 84.894531 246.5 86.441406 245.636719 L 92.425781 267.976562 C 86.753906 273.070312 86.511719 281.878906 91.90625 287.273438 C 97.292969 292.65625 106.101562 292.429688 111.203125 286.753906 L 133.546875 292.738281 C 132.730469 294.199219 132.226562 295.738281 132 297.289062 L 76.851562 308.015625 C 76.414062 306.679688 75.664062 305.421875 74.601562 304.363281 C 73.539062 303.300781 72.285156 302.550781 70.949219 302.113281 Z M 156.269531 306.8125 C 157.101562 305.628906 157.753906 304.285156 158.171875 302.8125 L 178.203125 314.378906 C 177.804688 322.019531 183.867188 328.390625 191.480469 328.390625 C 199.089844 328.390625 205.15625 322.019531 204.757812 314.378906 L 224.699219 302.871094 C 225.253906 304.824219 226.25 306.597656 227.570312 308.074219 L 196.519531 354.121094 C 195.265625 353.484375 193.847656 353.125 192.347656 353.125 C 190.847656 353.125 189.429688 353.484375 188.171875 354.121094 Z M 156.382812 291.714844 L 184.027344 264.074219 C 188.222656 267.101562 194.742188 267.101562 198.933594 264.074219 L 226.527344 291.664062 C 225.398438 293.308594 224.625 295.214844 224.328125 297.273438 L 203.460938 309.320312 C 201.3125 304.867188 196.753906 301.796875 191.480469 301.796875 C 186.207031 301.796875 181.648438 304.867188 179.5 309.320312 L 158.527344 297.214844 C 158.230469 295.253906 157.503906 293.371094 156.382812 291.714844 Z M 184.027344 111.640625 L 156.382812 84 C 157.503906 82.34375 158.230469 80.460938 158.527344 78.503906 L 179.5 66.394531 C 181.648438 70.847656 186.207031 73.917969 191.480469 73.917969 C 196.753906 73.917969 201.3125 70.847656 203.460938 66.394531 L 224.328125 78.441406 C 224.625 80.5 225.398438 82.410156 226.527344 84.050781 L 198.9375 111.640625 C 194.742188 108.613281 188.222656 108.613281 184.027344 111.640625 Z M 246.140625 130.449219 C 244.421875 128.988281 242.328125 127.957031 240.027344 127.515625 L 240.027344 89.605469 C 242.921875 89.0625 245.621094 87.566406 247.628906 85.25 L 269.089844 97.640625 C 269.058594 100.425781 269.925781 103.070312 271.382812 105.210938 Z M 115.066406 180.40625 L 113.125 184.84375 L 112.796875 187.175781 L 112.796875 188.542969 L 113.121094 190.863281 L 113.308594 191.589844 L 115.066406 195.3125 L 87.421875 222.949219 C 85.765625 221.828125 83.878906 221.097656 81.921875 220.804688 L 69.8125 199.835938 L 70.019531 199.734375 L 70.632812 199.40625 L 71.222656 199.046875 L 71.605469 198.792969 L 72.160156 198.386719 L 72.519531 198.097656 L 72.695312 197.949219 L 73.371094 197.332031 L 73.53125 197.167969 L 74.722656 195.773438 L 75.121094 195.210938 L 75.929688 193.816406 L 76.40625 192.757812 L 76.488281 192.539062 L 76.644531 192.101562 L 76.71875 191.875 C 77.546875 189.164062 77.546875 186.550781 76.71875 183.839844 L 76.644531 183.617188 L 76.488281 183.175781 L 76.402344 182.957031 L 75.929688 181.898438 L 75.117188 180.503906 L 73.53125 178.546875 L 73.371094 178.386719 L 72.695312 177.765625 L 72.519531 177.617188 L 72.160156 177.328125 L 71.605469 176.921875 L 71.222656 176.667969 L 70.632812 176.308594 L 70.019531 175.980469 L 69.8125 175.878906 L 81.921875 154.910156 C 83.878906 154.617188 85.765625 153.886719 87.421875 152.765625 Z M 132.121094 139.191406 L 93.023438 139.191406 C 92.648438 137.230469 91.832031 135.378906 90.652344 133.789062 L 96.921875 110.398438 C 101.589844 112.027344 106.984375 110.976562 110.710938 107.246094 C 114.441406 103.519531 115.492188 98.125 113.867188 93.457031 L 137.253906 87.191406 C 138.847656 88.367188 140.695312 89.183594 142.660156 89.5625 L 142.664062 128.652344 L 137.523438 130.832031 C 134.875 132.726562 132.554688 136.015625 132.121094 139.191406 Z M 240.027344 248.199219 C 242.328125 247.761719 244.421875 246.726562 246.140625 245.265625 L 271.382812 270.503906 C 269.925781 272.648438 269.058594 275.289062 269.089844 278.074219 L 247.628906 290.464844 C 245.621094 288.152344 242.921875 286.65625 240.027344 286.113281 Z M 93.023438 236.523438 L 132.121094 236.523438 C 132.554688 239.699219 134.875 242.992188 137.523438 244.882812 L 142.664062 247.0625 L 142.664062 286.152344 C 140.695312 286.53125 138.847656 287.347656 137.253906 288.523438 L 113.867188 282.257812 C 115.492188 277.589844 114.441406 272.199219 110.710938 268.46875 C 106.984375 264.738281 101.589844 263.6875 96.921875 265.316406 L 90.652344 241.929688 C 91.832031 240.335938 92.648438 238.488281 93.023438 236.523438 Z M 93.023438 236.523438 " fill-opacity="1" fill-rule="evenodd"/></g></svg>